<svg xmlns="http://www.w3.org/2000/svg" xmlns:xlink="http://www.w3.org/1999/xlink" viewBox="0 0 312.67 351.87"><defs><style>.cls-1{fill:#7b83c0;}.cls-2{opacity:0.61;fill:url(#linear-gradient);}.cls-3{fill:#fff;}</style><linearGradient id="linear-gradient" x1="97.13" y1="120.71" x2="264.97" y2="296.44" gradientUnits="userSpaceOnUse"><stop offset="0.2"/><stop offset="1" stop-opacity="0"/></linearGradient></defs><g id="Layer_2" data-name="Layer 2"><g id="Layer_1-2" data-name="Layer 1"><path class="cls-1" d="M312.67,102.79v146.3a29.62,29.62,0,0,1-14.82,25.66L213.58,323.4l-42.43,24.5c-.73.42-1.47.81-2.22,1.16s-1.34.6-2,.86a29.57,29.57,0,0,1-25.38-2L14.82,274.75A29.62,29.62,0,0,1,0,249.09V102.79A29.62,29.62,0,0,1,14.82,77.13L141.52,4a29.64,29.64,0,0,1,29.63,0l126.7,73.16A29.62,29.62,0,0,1,312.67,102.79Z"/><path class="cls-2" d="M312.67,187.24v61.85a29.62,29.62,0,0,1-14.82,25.66L213.58,323.4l-42.43,24.5c-.73.42-1.47.81-2.22,1.16s-1.34.6-2,.86l-63.51-63.51h4.44V146.09L69.67,107.93h53l3.94-1.71,3,1.71H160.3l47.47,23.79,23.88-25.5Z"/><path class="cls-3" d="M175.12,83.92H75a7.16,7.16,0,0,0-7.16,7.15v12.07A7.16,7.16,0,0,0,75,110.29H93.89a7.16,7.16,0,0,1,6.78,7.14V280.81a7.15,7.15,0,0,0,7.15,7.14h0a7.14,7.14,0,0,0,7.14-7.14V117.45a7.16,7.16,0,0,1,7.16-7.15h2.28a7.16,7.16,0,0,1,7.16,7.15V280.81a7.15,7.15,0,0,0,7.15,7.14H140a7.15,7.15,0,0,0,7.15-7.14V219.42a7.16,7.16,0,0,1,7.15-7.15h20.81c39.81,0,69.74-23.49,69.74-65.53C244.86,104.45,214.93,83.92,175.12,83.92ZM148.29,125.2a3.79,3.79,0,0,1,2.7-1.11h26.09a3.82,3.82,0,0,1,0,7.63H151a3.82,3.82,0,0,1-3.82-3.82A3.78,3.78,0,0,1,148.29,125.2Zm0,11.22a3.79,3.79,0,0,1,2.7-1.11h26.09a3.82,3.82,0,0,1,0,7.63H151a3.82,3.82,0,0,1-3.82-3.82A3.78,3.78,0,0,1,148.29,136.42Zm70.11,39.07a3.81,3.81,0,0,1-2.7,1.11H151a3.81,3.81,0,0,1-3.82-3.81,3.76,3.76,0,0,1,1.12-2.7A3.8,3.8,0,0,1,151,169H215.7a3.83,3.83,0,0,1,2.7,6.52Zm0-11.23a3.82,3.82,0,0,1-2.7,1.12H151a3.81,3.81,0,0,1-3.82-3.81,3.76,3.76,0,0,1,1.12-2.7,3.8,3.8,0,0,1,2.7-1.12H215.7a3.82,3.82,0,0,1,3.81,3.82A3.77,3.77,0,0,1,218.4,164.26Zm0-11.22a3.82,3.82,0,0,1-2.7,1.12H151a3.82,3.82,0,0,1-3.82-3.82,3.75,3.75,0,0,1,1.12-2.69,3.8,3.8,0,0,1,2.7-1.12H215.7a3.82,3.82,0,0,1,2.7,6.51Z"/></g></g></svg>